<?xml version="1.0" encoding="utf-8"?>
<!-- Generator: Adobe Illustrator 27.8.1, SVG Export Plug-In . SVG Version: 6.00 Build 0)  -->
<svg version="1.1" id="Layer_1" xmlns="http://www.w3.org/2000/svg" xmlns:xlink="http://www.w3.org/1999/xlink" x="0px" y="0px"
	 viewBox="0 0 512 512" style="enable-background:new 0 0 512 512;" xml:space="preserve">
<style type="text/css">
	.st0{fill:#00C85F;}
	.st1{fill:#FFF046;}
	.st2{fill:#4B82E1;}
	.st3{fill:#FFFFFF;}
</style>
<circle class="st0" cx="256" cy="256" r="256"/>
<path class="st1" d="M246.2,103.9l-217.5,145c-5.2,3.5-5.2,11.2,0,14.7l217.5,145c5.9,4,13.7,4,19.6,0l217.5-145
	c5.2-3.5,5.2-11.2,0-14.7l-217.5-145C259.9,99.9,252.1,99.9,246.2,103.9z"/>
<circle class="st2" cx="256" cy="256" r="105.9"/>
<path class="st3" d="M165.5,201.1c-3.5,5.7-6.4,11.8-8.8,18.1c49.2-3.3,128.2,5.4,197.5,76.2c2.5-6.2,4.4-12.6,5.7-19.2
	C292.1,211.1,216.7,199.5,165.5,201.1z"/>
</svg>
