<?xml version="1.0" encoding="UTF-8"?>
<svg id="Layer_2" data-name="Layer 2" xmlns="http://www.w3.org/2000/svg" xmlns:xlink="http://www.w3.org/1999/xlink" viewBox="0 0 475.54 101.21">
  <defs>
    <style>
      .cls-1 {
        fill: url(#linear-gradient);
      }

      .cls-1, .cls-2, .cls-3, .cls-4, .cls-5, .cls-6, .cls-7, .cls-8 {
        stroke-width: 0px;
      }

      .cls-2 {
        fill: url(#linear-gradient-4);
      }

      .cls-3 {
        fill: url(#linear-gradient-2);
      }

      .cls-4 {
        fill: url(#linear-gradient-3);
      }

      .cls-5 {
        fill: url(#linear-gradient-5);
      }

      .cls-6 {
        fill: url(#linear-gradient-6);
      }

      .cls-7 {
        fill: #097d4e;
      }

      .cls-8 {
        fill: #231f20;
      }
    </style>
    <linearGradient id="linear-gradient" x1="46.27" y1="38.2" x2="102.06" y2="38.2" gradientUnits="userSpaceOnUse">
      <stop offset="0" stop-color="#21b24b"/>
      <stop offset="1" stop-color="#004530"/>
    </linearGradient>
    <linearGradient id="linear-gradient-2" x1="4.55" y1="46.92" x2="112.54" y2="46.92" xlink:href="#linear-gradient"/>
    <linearGradient id="linear-gradient-3" x1="0" y1="76.93" x2="65.13" y2="76.93" xlink:href="#linear-gradient"/>
    <linearGradient id="linear-gradient-4" x1=".44" y1="60.26" x2="43.2" y2="60.26" xlink:href="#linear-gradient"/>
    <linearGradient id="linear-gradient-5" x1="35.3" y1="82.92" x2="78.37" y2="82.92" xlink:href="#linear-gradient"/>
    <linearGradient id="linear-gradient-6" x1="9.06" y1="37.41" x2="37.83" y2="37.41" xlink:href="#linear-gradient"/>
  </defs>
  <g id="Layer_1-2" data-name="Layer 1">
    <g>
      <path class="cls-1" d="m47.56,64.7c.27-1.21.54-2.4.81-3.58.58-2.55,1.17-5.1,1.71-7.66.08-.38-.05-.87-.24-1.22-1.62-2.94-2.85-6.02-3.28-9.37-1.03-8.04.68-15.39,5.75-21.8,4.29-5.43,9.85-9.02,16.66-10.27,8.29-1.52,15.92.28,22.56,5.62,5.83,4.68,9.29,10.78,10.26,18.17,1.1,8.42-1.18,15.87-6.99,22.14-4.61,4.97-10.22,8.2-16.99,9.11-6.27.85-12.25-.2-17.77-3.39-.75-.43-1.41-.5-2.23-.28-3.29.88-6.61,1.7-9.91,2.54-.07.02-.16,0-.35,0Zm17.15-31.1c2.21-.03,3.98-.88,5.48-2.34.56-.54.8-1.21.42-1.93-1.38-2.62-2.89-5.16-5.26-7.04-1.05-.83-2.22-.99-3.46-.42-2.36,1.09-3.98,2.86-4.71,5.37-.72,2.45-.14,4.78.86,7.01,2.72,6.08,6.88,11.07,11.85,15.43,2.81,2.47,5.86,4.57,9.46,5.77,4.04,1.34,8.01.05,10.27-3.33,1.13-1.69,1.19-3.38-.03-4.85-1.86-2.25-4.1-4.09-6.63-5.54-1.01-.58-1.72-.47-2.48.43-.63.74-1.18,1.58-1.62,2.45-.46.91-.75,1.9-1.14,2.92-5.2-3.81-9.62-8.32-13.01-13.91Z"/>
      <path class="cls-3" d="m74.23,5.28c-16.58-.04-29.47,12.01-32.48,26.8-.15.72-.32,1.46-.32,2.19,0,.98-.44,1.63-1.11,2.26-5.43,5.14-10.83,10.3-16.26,15.43-5.59,5.28-11.21,10.53-16.81,15.8-.83.78-1.17.82-1.87.19-.91-.81-1.1-1.67-.46-2.43,1.07-1.28,2.17-2.53,3.28-3.78,7.27-8.24,15.19-15.84,22.96-23.59,1.51-1.51,2.99-3.05,4.54-4.51.75-.7.73-1.62.89-2.47,1.7-8.8,5.92-16.12,12.72-21.95,5.28-4.53,11.38-7.35,18.2-8.63,3.38-.63,6.79-.69,10.21-.42,5.22.41,10.15,1.86,14.72,4.37,9.87,5.43,16.12,13.71,18.91,24.6,1.08,4.2,1.43,8.46.97,12.77-.94,8.67-4.46,16.14-10.53,22.41-3.61,3.74-7.82,6.65-12.36,9.12-12.31,6.68-24.63,13.36-36.94,20.04-1.37.74-2.53.34-2.89-.99-.18-.65,0-1.12.63-1.5,6.07-3.68,12.13-7.4,18.19-11.09,5.04-3.07,10.09-6.12,15.11-9.21.49-.3.84-.82,1.28-1.21.21-.19.46-.34.72-.45,9.07-3.84,15.74-10.13,19.47-19.32,1.91-4.71,2.44-9.66,1.96-14.72-.76-7.97-4.07-14.75-9.75-20.32-4.96-4.87-10.9-7.96-17.85-8.9-1.7-.23-3.42-.32-5.14-.48Z"/>
      <path class="cls-4" d="m14.2,101.21c8.75-8.72,18.02-16.84,28.03-24.15-3.64,1.16-7.29,2.32-11.1,3.54.99-2.79,1.93-5.41,2.86-8.04-10.89,8.82-22.46,16.68-34,24.92,14.64-15.51,30.05-29.97,45.13-44.83-1.58,6.51-3.16,13.02-4.77,19.66,2.89-.77,5.67-1.49,8.45-2.24,3.18-.85,6.37-1.72,9.55-2.57.17-.05.38-.09.53-.02,2.05.87,4.09,1.77,6.25,2.71-16.95,10.33-33.94,20.67-50.93,31.02Z"/>
      <path class="cls-2" d="m41.22,39.32c.11,3.88.68,7.53,1.96,11.05.08.23-.1.67-.31.88-2.17,2.24-4.34,4.49-6.58,6.65-4.71,4.54-9.45,9.05-14.21,13.53-2.91,2.74-5.88,5.41-8.82,8.11-.76.7-1.15.72-1.73.12-.61-.64-.63-1.3.04-1.94,1.17-1.11,2.4-2.16,3.59-3.25,5.24-4.81,10.47-9.63,15.7-14.45.9-.83.95-1.52.2-2.31-.7-.73-1.45-.71-2.28.05-6.32,5.77-12.63,11.55-18.98,17.3-2.05,1.85-4.17,3.63-6.28,5.41-.44.37-.88.98-1.56.64-.81-.41-1.47-1.05-1.51-2-.02-.42.28-.94.59-1.26,1.8-1.91,3.59-3.84,5.5-5.64,7.55-7.15,15.15-14.25,22.7-21.39,3.88-3.67,7.7-7.39,11.54-11.09.1-.09.2-.18.43-.39Z"/>
      <path class="cls-5" d="m78.37,70.92c-2.61,1.58-5.1,3.09-7.6,4.59-8.03,4.82-16.04,9.66-24.1,14.43-2.82,1.67-5.74,3.16-8.62,4.71-1.12.61-1.7.45-2.42-.6-.51-.74-.44-1.29.31-1.8,5.19-3.53,10.36-7.1,15.6-10.56,5.47-3.61,11-7.12,16.52-10.64.36-.23.9-.23,1.36-.21,1.47.07,2.94.27,4.41.29,1.47.02,2.94-.13,4.54-.21Z"/>
      <path class="cls-6" d="m37.83,19.91c-1.01,3.09-2.2,6.28-3.07,9.56-.36,1.36-1.01,2.32-1.95,3.26-7.2,7.23-14.38,14.48-21.54,21.75-.47.48-.89.57-1.43.19-.66-.45-.97-1.19-.66-1.74.2-.35.48-.66.75-.97,4.23-4.87,8.47-9.74,12.7-14.61,4.86-5.59,9.72-11.19,14.58-16.78.25-.29.52-.55.62-.66Z"/>
    </g>
    <g>
      <path class="cls-8" d="m160.6,60.58V27.14c0-.6-.13-1.07-.4-1.4-.27-.33-.8-.5-1.6-.5h-4.71v35.34h-13.22V25.24h-6.91v35.34h-13.42V13.93h43.05c4,0,6.77.72,8.31,2.15,1.53,1.44,2.3,3.85,2.3,7.26v37.24h-13.42Z"/>
      <path class="cls-8" d="m210.95,13.93c4,0,6.77.72,8.31,2.15,1.54,1.44,2.3,3.85,2.3,7.26v10.21c0,3.4-.77,5.82-2.3,7.26-1.54,1.44-4.3,2.15-8.31,2.15h-15.32v3.2c0,1.27.63,1.9,1.9,1.9h21.12v12.51h-26.03c-3.6,0-6.21-.88-7.81-2.65-1.6-1.77-2.4-4.35-2.4-7.76v-26.83c0-3.4.77-5.82,2.3-7.26,1.53-1.43,4.3-2.15,8.31-2.15h17.92Zm-15.32,17.92h10.61c.8,0,1.33-.17,1.6-.5.27-.33.4-.8.4-1.4v-3c0-.6-.13-1.07-.4-1.4-.27-.33-.8-.5-1.6-.5h-8.61c-.8,0-1.34.17-1.6.5-.27.33-.4.8-.4,1.4v4.91Z"/>
      <path class="cls-8" d="m241.09,56.98c-4,0-6.78-.72-8.31-2.15-1.54-1.43-2.3-3.85-2.3-7.26v-24.23c0-3.4.77-5.82,2.3-7.26,1.53-1.43,4.3-2.15,8.31-2.15h28.53v51.86c0,3.4-.8,5.99-2.4,7.76-1.6,1.77-4.21,2.65-7.81,2.65h-26.03v-12.81h20.83c1.27,0,1.9-.63,1.9-1.9v-4.51h-15.02Zm2.9-13.22c0,.6.13,1.07.4,1.4.27.33.8.5,1.6.5h10.11v-20.42h-10.11c-.8,0-1.34.17-1.6.5-.27.33-.4.8-.4,1.4v16.62Z"/>
      <path class="cls-8" d="m304.46,31.75v-3.4c0-1.27-.63-1.9-1.9-1.9h-21.12v-12.52h26.03c3.6,0,6.21.89,7.81,2.65,1.6,1.77,2.4,4.36,2.4,7.76v36.24h-28.53c-4,0-6.78-.72-8.31-2.15-1.54-1.43-2.3-3.85-2.3-7.26v-10.01c0-3.4.77-5.82,2.3-7.26,1.53-1.43,4.3-2.15,8.31-2.15h15.32Zm-12.71,15.82c0,.6.13,1.07.4,1.4.27.33.8.5,1.6.5h10.71v-6.81h-10.71c-.8,0-1.34.17-1.6.5-.27.33-.4.8-.4,1.4v3Z"/>
    </g>
    <g>
      <path class="cls-7" d="m379.73,53.27c0,2.34-.5,4.14-1.5,5.41-1,1.27-2.9,1.9-5.71,1.9h-2.8c-1.74,0-3.07-.33-4-1-.94-.67-1.8-1.5-2.6-2.5l-10.81-12.92-10.71,12.92c-.8,1-1.67,1.84-2.6,2.5-.93.67-2.27,1-4,1h-2.8c-2.8,0-4.71-.63-5.71-1.9-1-1.27-1.5-3.07-1.5-5.41V13.93h13.42v30.24l13.92-16.22,14.02,16.22V13.93h13.42v39.35Z"/>
      <path class="cls-7" d="m401.86,60.58v13.62h-13.52V13.93h28.53c4,0,6.77.72,8.31,2.15,1.54,1.44,2.3,3.85,2.3,7.26v27.83c0,3.4-.77,5.82-2.3,7.26-1.54,1.44-4.3,2.15-8.31,2.15h-15.02Zm12.12-33.44c0-.6-.13-1.07-.4-1.4-.27-.33-.8-.5-1.6-.5h-10.11v24.03h10.11c.8,0,1.33-.17,1.6-.5.27-.33.4-.8.4-1.4v-20.22Z"/>
      <path class="cls-7" d="m449.91,60.58v13.62h-13.52V13.93h28.53c4,0,6.77.72,8.31,2.15,1.54,1.44,2.3,3.85,2.3,7.26v27.83c0,3.4-.77,5.82-2.3,7.26-1.54,1.44-4.3,2.15-8.31,2.15h-15.02Zm12.12-33.44c0-.6-.13-1.07-.4-1.4-.27-.33-.8-.5-1.6-.5h-10.11v24.03h10.11c.8,0,1.33-.17,1.6-.5.27-.33.4-.8.4-1.4v-20.22Z"/>
    </g>
  </g>
</svg>