<?xml version="1.0" encoding="utf-8"?>
<!-- Generator: Adobe Illustrator 27.2.0, SVG Export Plug-In . SVG Version: 6.00 Build 0)  -->
<svg version="1.1" id="Camada_1" xmlns="http://www.w3.org/2000/svg" xmlns:xlink="http://www.w3.org/1999/xlink" x="0px" y="0px"
	 viewBox="0 0 193.2 224.3" style="enable-background:new 0 0 193.2 224.3;" xml:space="preserve">
<style type="text/css">
	.st0{fill:#FFFFFF;}
</style>
<g>
	<path class="st0" d="M193,101.2c0.1-1.5,0.1-3.1,0.1-4.6c0-35.1-18.7-65.8-46.7-82.7C131.9,5.1,114.8,0,96.6,0S61.3,5.1,46.7,13.8
		C18.7,30.8,0,61.5,0,96.6c0,1.6,0,3.1,0.1,4.6c0.4,8.9,2,17.4,4.7,25.5c2.3,7.1,5.5,13.9,9.3,20.2l-5.2,5.2c-7,7-7,18.4,0,25.5
		L50.4,219c7,7,18.4,7,25.5,0l10.6-10.6l10.1-10.1l10.1,10.1l10.6,10.6c7,7,18.4,7,25.5,0l41.5-41.5c7-7,7-18.4,0-25.5l-5.2-5.2
		c3.8-6.3,7-13.1,9.3-20.2C191,118.6,192.6,110.1,193,101.2z M160.7,128.5c-2.9,5.9-6.6,11.3-11,16.1c-1.6,1.8-3.3,3.5-5.1,5.1
		L101.2,193l-4.7,4.7l-4.7-4.7l-43.3-43.3c-1.8-1.6-3.5-3.3-5.1-5.1c-4.3-4.8-8-10.2-11-16.1c-4.8-9.6-7.5-20.4-7.5-31.9
		c0-28.3,16.4-52.7,40.2-64.3c9.5-4.6,20.2-7.3,31.4-7.3s22,2.6,31.4,7.3c23.8,11.6,40.2,36.1,40.2,64.3
		C168.2,108.1,165.5,118.9,160.7,128.5z"/>
	<circle class="st0" cx="96.6" cy="96.6" r="31.9"/>
</g>
</svg>
