<?xml version="1.0" encoding="utf-8"?>
<!-- Generator: Adobe Illustrator 27.8.1, SVG Export Plug-In . SVG Version: 6.00 Build 0)  -->
<svg version="1.1" id="Camada_1" xmlns="http://www.w3.org/2000/svg" xmlns:xlink="http://www.w3.org/1999/xlink" x="0px" y="0px"
	 viewBox="0 0 93.8 93.8" style="enable-background:new 0 0 93.8 93.8;" xml:space="preserve">
<style type="text/css">
	.st0{fill:#292D32;}
	.st1{opacity:0.4;enable-background:new    ;}
</style>
<g>
	<path class="st0" d="M46.9,93.8C21,93.8,0,72.7,0,46.9S21,0,46.9,0s46.9,21,46.9,46.9S72.7,93.8,46.9,93.8z M46.9,6.5
		C24.6,6.5,6.5,24.6,6.5,46.9s18.1,40.3,40.3,40.3s40.3-18.1,40.3-40.3S69.1,6.5,46.9,6.5z"/>
</g>
<g class="st1">
	<path class="st0" d="M46.9,60c-0.8,0-1.7-0.3-2.3-1L29.2,43.7c-1.3-1.3-1.3-3.3,0-4.6c1.3-1.3,3.3-1.3,4.6,0l13.1,13l13.1-13
		c1.3-1.3,3.4-1.3,4.6,0c1.3,1.3,1.3,3.4,0,4.6L49.2,59C48.5,59.7,47.7,60,46.9,60z"/>
</g>
</svg>
