<?xml version="1.0" encoding="utf-8"?>
<!-- Generator: Adobe Illustrator 27.8.1, SVG Export Plug-In . SVG Version: 6.00 Build 0)  -->
<svg version="1.1" id="Camada_1" xmlns="http://www.w3.org/2000/svg" xmlns:xlink="http://www.w3.org/1999/xlink" x="0px" y="0px"
	 viewBox="0 0 93.8 93.8" style="enable-background:new 0 0 93.8 93.8;" xml:space="preserve">
<style type="text/css">
	.st0{fill:#292D32;}
	.st1{opacity:0.4;enable-background:new    ;}
</style>
<g>
	<path class="st0" d="M0,46.9C0,21,21,0,46.9,0s46.9,21,46.9,46.9s-21,46.9-46.9,46.9S0,72.7,0,46.9z M87.2,46.9
		c0-22.2-18.1-40.3-40.3-40.3S6.5,24.6,6.5,46.9s18.1,40.3,40.3,40.3S87.2,69.1,87.2,46.9z"/>
</g>
<g class="st1">
	<path class="st0" d="M33.8,46.9c0-0.8,0.3-1.7,1-2.3l15.3-15.4c1.3-1.3,3.3-1.3,4.6,0c1.3,1.3,1.3,3.3,0,4.6l-13,13.1l13,13.1
		c1.3,1.3,1.3,3.4,0,4.6c-1.3,1.3-3.4,1.3-4.6,0L34.7,49.2C34.1,48.5,33.8,47.7,33.8,46.9z"/>
</g>
</svg>
