<?xml version="1.0" encoding="utf-8"?>
<!-- Generator: Adobe Illustrator 27.8.1, SVG Export Plug-In . SVG Version: 6.00 Build 0)  -->
<svg version="1.1" id="Camada_1" xmlns="http://www.w3.org/2000/svg" xmlns:xlink="http://www.w3.org/1999/xlink" x="0px" y="0px"
	 viewBox="0 0 87.9 87.9" style="enable-background:new 0 0 87.9 87.9;" xml:space="preserve">
<style type="text/css">
	.st0{fill:#292D32;}
	.st1{opacity:0.4;}
</style>
<g>
	<path class="st0" d="M44,87.9c-24.2,0-44-19.7-44-44C0,19.7,19.7,0,44,0s44,19.7,44,44C87.9,68.2,68.2,87.9,44,87.9z M44,6.1
		C23.1,6.1,6.1,23.1,6.1,44c0,20.9,17,37.8,37.8,37.8s37.8-17,37.8-37.8C81.8,23.1,64.8,6.1,44,6.1z"/>
</g>
<g class="st1">
	<g>
		<path class="st0" d="M60.3,47H27.6c-1.7,0-3.1-1.4-3.1-3.1s1.4-3.1,3.1-3.1h32.7c1.7,0,3.1,1.4,3.1,3.1S62,47,60.3,47z"/>
	</g>
	<g>
		<path class="st0" d="M44,63.4c-1.7,0-3.1-1.4-3.1-3.1V27.6c0-1.7,1.4-3.1,3.1-3.1s3.1,1.4,3.1,3.1v32.7C47,62,45.7,63.4,44,63.4z"
			/>
	</g>
</g>
</svg>
