<?xml version="1.0" encoding="utf-8"?>
<!-- Generator: Adobe Illustrator 27.8.1, SVG Export Plug-In . SVG Version: 6.00 Build 0)  -->
<svg version="1.1" id="Camada_1" xmlns="http://www.w3.org/2000/svg" xmlns:xlink="http://www.w3.org/1999/xlink" x="0px" y="0px"
	 viewBox="0 0 81.4 81.4" style="enable-background:new 0 0 81.4 81.4;" xml:space="preserve">
<style type="text/css">
	.st0{opacity:0.4;}
	.st1{fill:#292D32;}
</style>
<g class="st0">
	<g>
		<path class="st1" d="M8.6,81.4c-2.1,0-4.4-0.8-6-2.6c-3.4-3.4-3.4-8.6,0-12L66.8,2.5c3.4-3.4,8.6-3.4,12,0c3.4,3.4,3.4,8.6,0,12
			L14.6,78.8C13,80.6,10.9,81.4,8.6,81.4z"/>
	</g>
	<g>
		<path class="st1" d="M72.8,81.4c-2.1,0-4.4-0.8-6-2.6L2.5,14.6c-3.4-3.4-3.4-8.6,0-12s8.6-3.4,12,0l64.3,64.3
			c3.4,3.4,3.4,8.6,0,12C77.2,80.6,75.2,81.4,72.8,81.4z"/>
	</g>
</g>
</svg>
