<?xml version="1.0" encoding="utf-8"?>
<!-- Generator: Adobe Illustrator 27.8.1, SVG Export Plug-In . SVG Version: 6.00 Build 0)  -->
<svg version="1.1" id="Camada_1" xmlns="http://www.w3.org/2000/svg" xmlns:xlink="http://www.w3.org/1999/xlink" x="0px" y="0px"
	 viewBox="0 0 93.5 93.5" style="enable-background:new 0 0 93.5 93.5;" xml:space="preserve">
<style type="text/css">
	.st0{fill:#292D32;}
	.st1{opacity:0.4;}
</style>
<g>
	<path class="st0" d="M46.7,93.5C21,93.5,0,72.5,0,46.7C0,21,21,0,46.7,0s46.7,21,46.7,46.7C93.5,72.5,72.5,93.5,46.7,93.5z
		 M46.7,6.5c-22.2,0-40.2,18-40.2,40.2c0,22.2,18,40.2,40.2,40.2s40.2-18,40.2-40.2C86.9,24.6,68.9,6.5,46.7,6.5z"/>
</g>
<g class="st1">
	<g>
		<path class="st0" d="M34.4,62.3c-0.8,0-1.7-0.3-2.3-1c-1.3-1.3-1.3-3.3,0-4.6l24.6-24.6c1.3-1.3,3.3-1.3,4.6,0
			c1.3,1.3,1.3,3.3,0,4.6L36.7,61.3C36.1,62,35.3,62.3,34.4,62.3z"/>
	</g>
	<g>
		<path class="st0" d="M59,62.3c-0.8,0-1.7-0.3-2.3-1L32.1,36.7c-1.3-1.3-1.3-3.3,0-4.6c1.3-1.3,3.3-1.3,4.6,0l24.6,24.6
			c1.3,1.3,1.3,3.3,0,4.6C60.7,62,59.9,62.3,59,62.3z"/>
	</g>
</g>
</svg>
