<?xml version="1.0" encoding="utf-8"?>
<!-- Generator: Adobe Illustrator 27.8.1, SVG Export Plug-In . SVG Version: 6.00 Build 0)  -->
<svg version="1.1" id="Camada_1" xmlns="http://www.w3.org/2000/svg" xmlns:xlink="http://www.w3.org/1999/xlink" x="0px" y="0px"
	 viewBox="0 0 43.3 43" style="enable-background:new 0 0 43.3 43;" xml:space="preserve">
<g id="XMLID_1_">
	<path d="M25.3,16.1l15.9,3.2c1.3,0.3,2.1,1.4,2.1,2.6v18.4c0,1.5-1.2,2.7-2.7,2.7H24.4c0.5,0,0.9-0.4,0.9-0.9v-0.9h15.4
		c0.5,0,0.9-0.4,0.9-0.9V21.9c0-0.4-0.3-0.8-0.7-0.9l-15.5-3.1L25.3,16.1z"/>
	<path d="M35.2,25c0.5,0,0.9,0.4,0.9,0.9c0,0.5-0.4,0.9-0.9,0.9h-3.6c-0.5,0-0.9-0.4-0.9-0.9c0-0.5,0.4-0.9,0.9-0.9H35.2z"/>
	<path d="M35.2,30.4c0.5,0,0.9,0.4,0.9,0.9s-0.4,0.9-0.9,0.9h-3.6c-0.5,0-0.9-0.4-0.9-0.9s0.4-0.9,0.9-0.9H35.2z"/>
	<path d="M35.2,35.8c0.5,0,0.9,0.4,0.9,0.9c0,0.5-0.4,0.9-0.9,0.9h-3.6c-0.5,0-0.9-0.4-0.9-0.9c0-0.5,0.4-0.9,0.9-0.9H35.2z"/>
	<path d="M25.3,42.1c0,0.5-0.4,0.9-0.9,0.9c-0.5,0-0.9-0.4-0.9-0.9v-0.9V16.8c0-0.3,0.1-0.5,0.3-0.7c0.2-0.2,0.5-0.2,0.8-0.2
		l0.7,0.1v1.8v23.3V42.1z"/>
	<path d="M23.5,41.2v0.9c0,0.5,0.4,0.9,0.9,0.9h-7.2c0.5,0,0.9-0.4,0.9-0.9v-0.9H23.5z"/>
	<path d="M19,8.7c0.5,0,0.9,0.4,0.9,0.9c0,0.5-0.4,0.9-0.9,0.9h-3.6c-0.5,0-0.9-0.4-0.9-0.9c0-0.5,0.4-0.9,0.9-0.9H19z"/>
	<path d="M19.9,15c0,0.5-0.4,0.9-0.9,0.9h-3.6c-0.5,0-0.9-0.4-0.9-0.9c0-0.5,0.4-0.9,0.9-0.9H19C19.5,14.1,19.9,14.5,19.9,15z"/>
	<path d="M19,19.5c0.5,0,0.9,0.4,0.9,0.9c0,0.5-0.4,0.9-0.9,0.9h-3.6c-0.5,0-0.9-0.4-0.9-0.9c0-0.5,0.4-0.9,0.9-0.9H19z"/>
	<path d="M19,25c0.5,0,0.9,0.4,0.9,0.9c0,0.5-0.4,0.9-0.9,0.9h-3.6c-0.5,0-0.9-0.4-0.9-0.9c0-0.5,0.4-0.9,0.9-0.9H19z"/>
	<path d="M10.8,25.9c0,0.5-0.4,0.9-0.9,0.9H6.3c-0.5,0-0.9-0.4-0.9-0.9c0-0.5,0.4-0.9,0.9-0.9h3.6C10.4,25,10.8,25.4,10.8,25.9z"/>
	<path d="M9.9,8.7c0.5,0,0.9,0.4,0.9,0.9c0,0.5-0.4,0.9-0.9,0.9H6.3c-0.5,0-0.9-0.4-0.9-0.9c0-0.5,0.4-0.9,0.9-0.9H9.9z"/>
	<path d="M9.9,14.1c0.5,0,0.9,0.4,0.9,0.9c0,0.5-0.4,0.9-0.9,0.9H6.3c-0.5,0-0.9-0.4-0.9-0.9c0-0.5,0.4-0.9,0.9-0.9H9.9z"/>
	<path d="M9.9,19.5c0.5,0,0.9,0.4,0.9,0.9c0,0.5-0.4,0.9-0.9,0.9H6.3c-0.5,0-0.9-0.4-0.9-0.9c0-0.5,0.4-0.9,0.9-0.9H9.9z"/>
	<path d="M16.3,33.1c0-0.5-0.4-0.9-0.9-0.9H9.9c-0.5,0-0.9,0.4-0.9,0.9v8.1H7.2v-8.1c0-1.5,1.2-2.7,2.7-2.7h5.4
		c1.5,0,2.7,1.2,2.7,2.7v8.1h-1.8V33.1z"/>
	<path d="M9,41.2h7.2h1.8v0.9c0,0.5-0.4,0.9-0.9,0.9h-9c-0.5,0-0.9-0.4-0.9-0.9v-0.9H9z"/>
	<path d="M3.2,0l19.8,3c1.3,0.2,2.3,1.3,2.3,2.7v10.4l-0.7-0.1c-0.3-0.1-0.5,0-0.8,0.2c-0.2,0.2-0.3,0.4-0.3,0.7V5.7
		c0-0.5-0.3-0.8-0.8-0.9l-19.8-3c-0.1,0-0.1,0-0.2,0C2.5,1.8,2.3,1.9,2.1,2C1.9,2.2,1.8,2.4,1.8,2.7v37.6c0,0.5,0.4,0.9,0.9,0.9h4.5
		v0.9c0,0.5,0.4,0.9,0.9,0.9H2.7C1.2,43,0,41.8,0,40.3V2.7c0-0.8,0.3-1.6,1-2.1C1.6,0.1,2.4-0.1,3.2,0z"/>
</g>
</svg>
