<?xml version="1.0" encoding="utf-8"?>
<!-- Generator: Adobe Illustrator 27.8.1, SVG Export Plug-In . SVG Version: 6.00 Build 0)  -->
<svg version="1.1" id="Camada_1" xmlns="http://www.w3.org/2000/svg" xmlns:xlink="http://www.w3.org/1999/xlink" x="0px" y="0px"
	 viewBox="0 0 87.9 87.9" style="enable-background:new 0 0 87.9 87.9;" xml:space="preserve">
<style type="text/css">
	.st0{fill:#292D32;}
	.st1{opacity:0.4;enable-background:new    ;}
</style>
<g>
	<path class="st0" d="M40.3,87.9H23.1C7.1,87.9,0,80.8,0,64.8V47.7c0-16,7.1-23.1,23.1-23.1h17.2c16,0,23.1,7.1,23.1,23.1v17.2
		C63.4,80.8,56.3,87.9,40.3,87.9z M23.1,30.7c-12.7,0-17,4.3-17,17v17.2c0,12.7,4.3,17,17,17h17.2c12.7,0,17-4.3,17-17V47.7
		c0-12.7-4.3-17-17-17H23.1z"/>
</g>
<g class="st1">
	<path class="st0" d="M64.8,63.4h-4.5c-1.7,0-3.1-1.4-3.1-3.1V47.7c0-12.7-4.3-17-17-17H27.6c-1.7,0-3.1-1.4-3.1-3.1v-4.5
		C24.5,7.1,31.7,0,47.7,0h17.2c16,0,23.1,7.1,23.1,23.1v17.2C87.9,56.3,80.8,63.4,64.8,63.4z M63.4,57.3h1.4c12.7,0,17-4.3,17-17
		V23.1c0-12.7-4.3-17-17-17H47.7c-12.7,0-17,4.3-17,17v1.4h9.6c16,0,23.1,7.1,23.1,23.1V57.3z"/>
</g>
</svg>
