<?xml version="1.0" encoding="utf-8"?>
<!-- Generator: Adobe Illustrator 27.8.1, SVG Export Plug-In . SVG Version: 6.00 Build 0)  -->
<svg version="1.1" id="Camada_1" xmlns="http://www.w3.org/2000/svg" xmlns:xlink="http://www.w3.org/1999/xlink" x="0px" y="0px"
	 viewBox="0 0 52.8 87.9" style="enable-background:new 0 0 52.8 87.9;" xml:space="preserve">
<path d="M0,8.8C0,3.9,3.9,0,8.8,0s8.8,3.9,8.8,8.8s-3.9,8.8-8.8,8.8S0,13.7,0,8.8z M8.8,52.8c4.9,0,8.8-3.9,8.8-8.8
	s-3.9-8.8-8.8-8.8S0,39.1,0,44S3.9,52.8,8.8,52.8z M8.8,87.9c4.9,0,8.8-3.9,8.8-8.8s-3.9-8.8-8.8-8.8S0,74.3,0,79.1
	S3.9,87.9,8.8,87.9z M44,17.6c4.9,0,8.8-3.9,8.8-8.8S48.8,0,44,0s-8.8,3.9-8.8,8.8S39.1,17.6,44,17.6z M44,52.8
	c4.9,0,8.8-3.9,8.8-8.8s-3.9-8.8-8.8-8.8s-8.8,3.9-8.8,8.8S39.1,52.8,44,52.8z M44,87.9c4.9,0,8.8-3.9,8.8-8.8s-3.9-8.8-8.8-8.8
	s-8.8,3.9-8.8,8.8S39.1,87.9,44,87.9z"/>
</svg>
