<?xml version="1.0" encoding="utf-8"?>
<!-- Generator: Adobe Illustrator 27.8.1, SVG Export Plug-In . SVG Version: 6.00 Build 0)  -->
<svg version="1.1" id="Camada_1" xmlns="http://www.w3.org/2000/svg" xmlns:xlink="http://www.w3.org/1999/xlink" x="0px" y="0px"
	 viewBox="0 0 28.1 28.1" style="enable-background:new 0 0 28.1 28.1;" xml:space="preserve">
<style type="text/css">
	.st0{fill:#292D32;}
</style>
<g>
	<path class="st0" d="M25.3,8.1c-0.3-0.4-1-0.5-1.4-0.1c-0.4,0.3-0.5,1-0.1,1.4c0.5,0.6,0.9,1.2,1.3,1.8c1,1.5,1,4.2,0,5.7
		c-2.8,4.4-6.9,7-11.1,7c-1.4,0-2.9-0.3-4.3-0.9c-0.5-0.2-1.1,0-1.3,0.5c-0.2,0.5,0,1.1,0.5,1.3c1.6,0.7,3.3,1,5.1,1
		c4.9,0,9.5-2.9,12.7-7.9c1.4-2.2,1.4-5.7,0-7.8C26.3,9.5,25.9,8.8,25.3,8.1z"/>
	<path class="st0" d="M17.7,14.8c-0.3,1.4-1.5,2.6-2.9,2.9c-0.5,0.1-0.9,0.6-0.8,1.1c0.1,0.5,0.5,0.8,1,0.8c0.1,0,0.1,0,0.2,0
		c2.3-0.4,4.1-2.2,4.5-4.5c0.1-0.5-0.3-1-0.8-1.1C18.3,13.9,17.8,14.2,17.7,14.8z"/>
	<path class="st0" d="M11.4,18l6.6-6.6c0,0,0,0,0,0l9.8-9.8c0.4-0.4,0.4-1,0-1.4c-0.4-0.4-1-0.4-1.4,0l-4.6,4.6
		c-2.4-1.7-5.1-2.6-7.8-2.6c-4.9,0-9.5,2.9-12.7,7.9c-1.4,2.2-1.4,5.7,0,7.8c1,1.5,2.1,2.9,3.4,4l-4.4,4.4c-0.4,0.4-0.4,1,0,1.4
		C0.5,28,0.7,28.1,1,28.1s0.5-0.1,0.7-0.3L11.4,18C11.4,18,11.4,18,11.4,18z M10.8,15.9c-0.3-0.6-0.5-1.2-0.5-1.8
		c0-2,1.7-3.7,3.7-3.7c0.7,0,1.3,0.2,1.8,0.5L10.8,15.9z M3,16.9c-1-1.5-1-4.2,0-5.7c2.8-4.4,6.9-7,11.1-7c2.2,0,4.4,0.7,6.4,2
		l-3.2,3.2c-0.9-0.7-2.1-1-3.2-1c-3.1,0-5.7,2.5-5.7,5.7c0,1.2,0.4,2.3,1,3.2l-3.3,3.3C4.9,19.6,3.9,18.3,3,16.9z"/>
</g>
</svg>
