<?xml version="1.0" encoding="utf-8"?>
<!-- Generator: Adobe Illustrator 27.8.1, SVG Export Plug-In . SVG Version: 6.00 Build 0)  -->
<svg version="1.1" id="Camada_1" xmlns="http://www.w3.org/2000/svg" xmlns:xlink="http://www.w3.org/1999/xlink" x="0px" y="0px"
	 viewBox="0 0 28.6 24.5" style="enable-background:new 0 0 28.6 24.5;" xml:space="preserve">
<style type="text/css">
	.st0{opacity:0.4;enable-background:new    ;}
	.st1{fill:#292D32;}
</style>
<g class="st0">
	<path class="st1" d="M14.3,18.1c-3.2,0-5.9-2.6-5.9-5.9s2.6-5.9,5.9-5.9s5.9,2.6,5.9,5.9S17.5,18.1,14.3,18.1z M14.3,8.4
		c-2.1,0-3.8,1.7-3.8,3.8s1.7,3.8,3.8,3.8s3.8-1.7,3.8-3.8S16.4,8.4,14.3,8.4z"/>
</g>
<g>
	<path class="st1" d="M14.3,24.5c-5.1,0-9.9-3-13.2-8.2c-1.4-2.2-1.4-5.9,0-8.1C4.4,3,9.2,0,14.3,0c5.1,0,9.9,3,13.2,8.2
		c1.4,2.2,1.4,5.9,0,8.1C24.2,21.5,19.4,24.5,14.3,24.5z M14.3,2C9.9,2,5.7,4.7,2.8,9.3c-1,1.6-1,4.4,0,5.9
		c2.9,4.6,7.1,7.2,11.5,7.2c4.4,0,8.6-2.6,11.5-7.2c1-1.6,1-4.4,0-5.9C22.9,4.7,18.7,2,14.3,2z"/>
</g>
</svg>
