<?xml version="1.0" encoding="utf-8"?>
<!-- Generator: Adobe Illustrator 27.8.1, SVG Export Plug-In . SVG Version: 6.00 Build 0)  -->
<svg version="1.1" id="Camada_1" xmlns="http://www.w3.org/2000/svg" xmlns:xlink="http://www.w3.org/1999/xlink" x="0px" y="0px"
	 viewBox="0 0 47.6 60" style="enable-background:new 0 0 47.6 60;" xml:space="preserve">
<g id="surface1">
	<path d="M32.3,0.5c-0.3-0.3-0.7-0.5-1-0.5H7.9C3.6,0,0,3.6,0,7.9v44.3C0,56.5,3.6,60,7.9,60h31.8c4.3,0,7.9-3.6,7.9-7.9V17
		c0-0.4-0.2-0.7-0.4-1L32.3,0.5z M32.8,5.1l9.9,10.4h-6.4c-1.9,0-3.5-1.5-3.5-3.5V5.1z M39.7,57.1H7.9c-2.7,0-5-2.2-5-5V7.9
		c0-2.7,2.3-5,5-5h22v9.2c0,3.5,2.8,6.4,6.4,6.4h8.4v33.7C44.7,54.9,42.4,57.1,39.7,57.1z"/>
	<path d="M35.7,47.1H11.8c-0.8,0-1.4,0.7-1.4,1.4c0,0.8,0.7,1.4,1.4,1.4h23.9c0.8,0,1.4-0.7,1.4-1.4C37.2,47.8,36.5,47.1,35.7,47.1z
		"/>
	<path d="M22.7,41.9c0.3,0.3,0.7,0.5,1.1,0.5c0.4,0,0.8-0.2,1.1-0.5l8.5-9.1c0.6-0.6,0.5-1.5-0.1-2c-0.6-0.6-1.5-0.5-2,0.1l-6,6.4
		V21.4c0-0.8-0.7-1.4-1.4-1.4c-0.8,0-1.4,0.7-1.4,1.4v15.8l-6-6.4c-0.6-0.6-1.5-0.6-2-0.1c-0.6,0.6-0.6,1.5-0.1,2L22.7,41.9z"/>
</g>
</svg>
