<?xml version="1.0" encoding="utf-8"?>
<!-- Generator: Adobe Illustrator 27.8.1, SVG Export Plug-In . SVG Version: 6.00 Build 0)  -->
<svg version="1.1" id="Camada_1" xmlns="http://www.w3.org/2000/svg" xmlns:xlink="http://www.w3.org/1999/xlink" x="0px" y="0px"
	 viewBox="0 0 63.9 63.9" style="enable-background:new 0 0 63.9 63.9;" xml:space="preserve">
<style type="text/css">
	.st0{fill:#292D32;}
	.st1{opacity:0.34;enable-background:new    ;}
</style>
<g>
	<path class="st0" d="M32,63.9c-17.6,0-32-14.3-32-32C0,14.3,14.3,0,32,0c17.6,0,32,14.3,32,32C63.9,49.6,49.6,63.9,32,63.9z
		 M32,4.5C16.8,4.5,4.5,16.8,4.5,32c0,15.2,12.3,27.5,27.5,27.5c15.2,0,27.5-12.3,27.5-27.5C59.5,16.8,47.1,4.5,32,4.5z"/>
</g>
<g class="st1">
	<path class="st0" d="M32,37.2c-1.2,0-2.2-1-2.2-2.2V20.1c0-1.2,1-2.2,2.2-2.2c1.2,0,2.2,1,2.2,2.2v14.9
		C34.2,36.2,33.2,37.2,32,37.2z"/>
</g>
<g class="st1">
	<path class="st0" d="M32,46.8c-1.6,0-3-1.3-3-3s1.3-3,3-3h0c1.6,0,3,1.3,3,3S33.6,46.8,32,46.8z"/>
</g>
</svg>
