<?xml version="1.0" encoding="utf-8"?>
<!-- Generator: Adobe Illustrator 27.8.1, SVG Export Plug-In . SVG Version: 6.00 Build 0)  -->
<svg version="1.1" id="Camada_1" xmlns="http://www.w3.org/2000/svg" xmlns:xlink="http://www.w3.org/1999/xlink" x="0px" y="0px"
	 viewBox="0 0 93.8 93.8" style="enable-background:new 0 0 93.8 93.8;" xml:space="preserve">
<style type="text/css">
	.st0{fill:#292D32;}
</style>
<g>
	<path class="st0" d="M76.9,35.2v-5.8c0-12.6-3-29.3-29.3-29.3C21.2,0,18.2,16.7,18.2,29.3v5.8C5.1,36.8,0.8,43.4,0.8,59.8v8.7
		c0,19.2,5.8,25,25,25h43.5c19.2,0,25-5.8,25-25v-8.7C94.3,43.4,90,36.8,76.9,35.2z M24.7,29.3c0-13.7,3.9-22.8,22.8-22.8
		c18.9,0,22.8,9.1,22.8,22.8v5.4c-0.4,0-0.7,0-1.1,0H25.8c-0.4,0-0.7,0-1.1,0V29.3z M87.8,68.5c0,15.5-2.9,18.5-18.5,18.5H25.8
		C10.3,86.9,7.3,84,7.3,68.5v-8.7c0-15.5,2.9-18.5,18.5-18.5h43.5c15.5,0,18.5,2.9,18.5,18.5V68.5z"/>
	<path class="st0" d="M65,59.8L65,59.8c-2.4,0-4.4,1.9-4.4,4.3s2,4.3,4.4,4.3s4.3-1.9,4.3-4.3S67.4,59.8,65,59.8z"/>
	<path class="st0" d="M47.6,59.8L47.6,59.8c-2.4,0-4.4,1.9-4.4,4.3s2,4.3,4.4,4.3s4.3-1.9,4.3-4.3S50,59.8,47.6,59.8z"/>
	<path class="st0" d="M30.2,59.8L30.2,59.8c-2.4,0-4.4,1.9-4.4,4.3s2,4.3,4.4,4.3c2.4,0,4.3-1.9,4.3-4.3S32.6,59.8,30.2,59.8z"/>
</g>
</svg>
