<?xml version="1.0" encoding="utf-8"?>
<!-- Generator: Adobe Illustrator 27.8.1, SVG Export Plug-In . SVG Version: 6.00 Build 0)  -->
<svg version="1.1" id="Camada_1" xmlns="http://www.w3.org/2000/svg" xmlns:xlink="http://www.w3.org/1999/xlink" x="0px" y="0px"
	 viewBox="0 0 27.9 27.5" style="enable-background:new 0 0 27.9 27.5;" xml:space="preserve">
<style type="text/css">
	.st0{opacity:0.4;}
	.st1{fill:#292D32;}
</style>
<g class="st0">
	<g>
		<path class="st1" d="M22.7,19.1c-0.3,0-0.6-0.1-0.8-0.3c-0.5-0.5-0.5-1.2,0-1.7l3.2-3.2l-3.2-3.2c-0.5-0.5-0.5-1.2,0-1.7
			s1.2-0.5,1.7,0l4,4c0.5,0.5,0.5,1.2,0,1.7l-4,4C23.3,19,23,19.1,22.7,19.1z"/>
	</g>
	<g>
		<path class="st1" d="M26.6,15h-16c-0.7,0-1.2-0.5-1.2-1.2c0-0.7,0.5-1.2,1.2-1.2h16c0.7,0,1.2,0.5,1.2,1.2
			C27.8,14.5,27.3,15,26.6,15z"/>
	</g>
</g>
<g>
	<path class="st1" d="M13.8,27.5C5.7,27.5,0,21.9,0,13.8C0,5.7,5.7,0,13.8,0C14.4,0,15,0.5,15,1.2s-0.5,1.2-1.2,1.2
		C7.1,2.4,2.4,7.1,2.4,13.8s4.7,11.4,11.4,11.4c0.7,0,1.2,0.5,1.2,1.2C15,27,14.4,27.5,13.8,27.5z"/>
</g>
</svg>
