<?xml version="1.0" encoding="utf-8"?>
<!-- Generator: Adobe Illustrator 27.8.1, SVG Export Plug-In . SVG Version: 6.00 Build 0)  -->
<svg version="1.1" id="Camada_1" xmlns="http://www.w3.org/2000/svg" xmlns:xlink="http://www.w3.org/1999/xlink" x="0px" y="0px"
	 viewBox="0 0 22.4 27.5" style="enable-background:new 0 0 22.4 27.5;" xml:space="preserve">
<style type="text/css">
	.st0{fill:#292D32;}
	.st1{opacity:0.4;enable-background:new    ;}
</style>
<g>
	<path class="st0" d="M11.2,24.7c-2.9,0-5.9-0.5-8.8-1.4c-1.1-0.4-1.9-1.1-2.2-2.1c-0.4-1-0.2-2.1,0.4-3L2,15.6
		c0.3-0.5,0.6-1.5,0.6-2.1V9.8c0-4.7,3.9-8.6,8.6-8.6c4.7,0,8.6,3.9,8.6,8.6v3.7c0,0.6,0.3,1.6,0.6,2.1l1.5,2.4c0.6,0.9,0.7,2,0.3,3
		c-0.4,1-1.2,1.8-2.2,2.1C17.1,24.2,14.1,24.7,11.2,24.7z M11.2,3.1c-3.7,0-6.7,3-6.7,6.7v3.7c0,0.9-0.4,2.3-0.9,3.1l-1.5,2.4
		c-0.3,0.5-0.4,1-0.2,1.4c0.2,0.4,0.5,0.8,1.1,0.9c5.3,1.8,11,1.8,16.3,0c0.5-0.2,0.8-0.5,1-1c0.2-0.5,0.1-1-0.1-1.4l-1.5-2.4
		c-0.5-0.8-0.8-2.2-0.8-3.1V9.8C17.9,6.1,14.9,3.1,11.2,3.1z"/>
</g>
<g>
	<path class="st0" d="M13.6,3.5c-0.1,0-0.2,0-0.3,0c-0.4-0.1-0.7-0.2-1.1-0.2c-1.1-0.1-2.1-0.1-3.1,0.2c-0.4,0.1-0.7,0-1-0.3
		C7.9,2.9,7.8,2.6,8,2.2C8.5,0.9,9.8,0,11.2,0c1.4,0,2.7,0.9,3.2,2.2c0.1,0.3,0.1,0.7-0.2,1C14.1,3.4,13.8,3.5,13.6,3.5z"/>
</g>
<g class="st1">
	<path class="st0" d="M11.2,27.5c-1.3,0-2.5-0.5-3.4-1.4c-0.9-0.9-1.4-2.1-1.4-3.4h1.9c0,0.8,0.3,1.5,0.8,2c0.5,0.5,1.3,0.8,2,0.8
		c1.6,0,2.9-1.3,2.9-2.9H16C16,25.4,13.8,27.5,11.2,27.5z"/>
</g>
</svg>
