<?xml version="1.0" encoding="utf-8"?>
<!-- Generator: Adobe Illustrator 27.8.1, SVG Export Plug-In . SVG Version: 6.00 Build 0)  -->
<svg version="1.1" id="Camada_1" xmlns="http://www.w3.org/2000/svg" xmlns:xlink="http://www.w3.org/1999/xlink" x="0px" y="0px"
	 viewBox="0 0 83 87.9" style="enable-background:new 0 0 83 87.9;" xml:space="preserve">
<style type="text/css">
	.st0{fill:#292D32;}
</style>
<g>
	<path class="st0" d="M21.9,87.9c-3.8,0-7.3-0.9-10.4-2.7C4.1,81,0,72.3,0,60.8V27.1C0,15.6,4.1,7,11.5,2.7
		C18.9-1.6,28.4-0.8,38.3,5l29.3,16.9C77.5,27.6,83,35.4,83,44c0,8.5-5.5,16.4-15.4,22.1L38.3,83C32.6,86.3,27,87.9,21.9,87.9z
		 M21.9,7.1c-2.5,0-4.9,0.6-6.9,1.7c-5.1,2.9-7.9,9.4-7.9,18.2v33.7c0,8.8,2.8,15.3,7.9,18.2c5.1,2.9,12.1,2.1,19.7-2.3l29.3-16.9
		c7.6-4.4,11.8-10.1,11.8-16s-4.2-11.6-11.8-16L34.8,11.1C30.2,8.5,25.8,7.1,21.9,7.1z"/>
</g>
</svg>
