<?xml version="1.0" encoding="utf-8"?>
<!-- Generator: Adobe Illustrator 27.8.1, SVG Export Plug-In . SVG Version: 6.00 Build 0)  -->
<svg version="1.1" id="Camada_1" xmlns="http://www.w3.org/2000/svg" xmlns:xlink="http://www.w3.org/1999/xlink" x="0px" y="0px"
	 viewBox="0 0 41.9 41.9" style="enable-background:new 0 0 41.9 41.9;" xml:space="preserve">
<style type="text/css">
	.st0{opacity:0.4;}
	.st1{fill:#292D32;}
</style>
<g class="st0">
	<g>
		<path class="st1" d="M28.8,22.4H13.2c-0.8,0-1.5-0.7-1.5-1.5s0.7-1.5,1.5-1.5h15.6c0.8,0,1.5,0.7,1.5,1.5S29.6,22.4,28.8,22.4z"/>
	</g>
	<g>
		<path class="st1" d="M21,30.2c-0.8,0-1.5-0.7-1.5-1.5V13.2c0-0.8,0.7-1.5,1.5-1.5c0.8,0,1.5,0.7,1.5,1.5v15.6
			C22.4,29.6,21.8,30.2,21,30.2z"/>
	</g>
</g>
<g>
	<path class="st1" d="M26.8,41.9H15.1C4.5,41.9,0,37.4,0,26.8V15.1C0,4.5,4.5,0,15.1,0h11.7c10.6,0,15.1,4.5,15.1,15.1v11.7
		C41.9,37.4,37.4,41.9,26.8,41.9z M15.1,2.9c-9,0-12.2,3.2-12.2,12.2v11.7c0,9,3.2,12.2,12.2,12.2h11.7c9,0,12.2-3.2,12.2-12.2V15.1
		c0-9-3.2-12.2-12.2-12.2H15.1z"/>
</g>
</svg>
