<?xml version="1.0" encoding="utf-8"?>
<!-- Generator: Adobe Illustrator 27.8.1, SVG Export Plug-In . SVG Version: 6.00 Build 0)  -->
<svg version="1.1" id="Camada_1" xmlns="http://www.w3.org/2000/svg" xmlns:xlink="http://www.w3.org/1999/xlink" x="0px" y="0px"
	 viewBox="0 0 27.7 27.7" style="enable-background:new 0 0 27.7 27.7;" xml:space="preserve">
<style type="text/css">
	.st0{fill:#292D32;}
	.st1{opacity:0.4;enable-background:new    ;}
</style>
<g>
	<path class="st0" d="M17.7,27.7H10c-7,0-10-3-10-10V10C0,3,3,0,10,0h6.4c0.5,0,1,0.4,1,1s-0.4,1-1,1H10C4,1.9,1.9,4,1.9,10v7.7
		c0,5.9,2.1,8.1,8.1,8.1h7.7c5.9,0,8.1-2.1,8.1-8.1v-6.4c0-0.5,0.4-1,1-1s1,0.4,1,1v6.4C27.7,24.7,24.7,27.7,17.7,27.7z"/>
</g>
<g>
	<path class="st0" d="M26.7,12.2h-5.2c-4.4,0-6.1-1.7-6.1-6.1V1c0-0.4,0.2-0.7,0.6-0.9c0.4-0.1,0.8-0.1,1.1,0.2l10.3,10.3
		c0.3,0.3,0.4,0.7,0.2,1.1C27.5,12,27.1,12.2,26.7,12.2z M17.4,3.3v2.8c0,3.3,0.9,4.2,4.2,4.2h2.8L17.4,3.3z"/>
</g>
<g class="st1">
	<path class="st0" d="M15.1,16.1H7.4c-0.5,0-1-0.4-1-1c0-0.5,0.4-1,1-1h7.7c0.5,0,1,0.4,1,1C16.1,15.7,15.7,16.1,15.1,16.1z"/>
</g>
<g class="st1">
	<path class="st0" d="M12.6,21.3H7.4c-0.5,0-1-0.4-1-1s0.4-1,1-1h5.2c0.5,0,1,0.4,1,1S13.1,21.3,12.6,21.3z"/>
</g>
</svg>
