<?xml version="1.0" encoding="utf-8"?>
<!-- Generator: Adobe Illustrator 27.8.1, SVG Export Plug-In . SVG Version: 6.00 Build 0)  -->
<svg version="1.1" id="Camada_1" xmlns="http://www.w3.org/2000/svg" xmlns:xlink="http://www.w3.org/1999/xlink" x="0px" y="0px"
	 viewBox="0 0 29.9 29.9" style="enable-background:new 0 0 29.9 29.9;" xml:space="preserve">
<style type="text/css">
	.st0{fill:#292D32;}
	.st1{opacity:0.4;enable-background:new    ;}
</style>
<g>
	<path class="st0" d="M14.2,28.5C6.4,28.5,0,22.1,0,14.2S6.4,0,14.2,0s14.2,6.4,14.2,14.2S22.1,28.5,14.2,28.5z M14.2,2.1
		C7.5,2.1,2.1,7.5,2.1,14.2s5.5,12.2,12.2,12.2s12.2-5.5,12.2-12.2S20.9,2.1,14.2,2.1z"/>
</g>
<g class="st1">
	<path class="st0" d="M28.8,29.9c-0.3,0-0.5-0.1-0.7-0.3l-2.8-2.8c-0.4-0.4-0.4-1.1,0-1.5s1.1-0.4,1.5,0l2.8,2.8
		c0.4,0.4,0.4,1.1,0,1.5C29.4,29.8,29.1,29.9,28.8,29.9z"/>
</g>
</svg>
