<?xml version="1.0" encoding="utf-8"?>
<!-- Generator: Adobe Illustrator 27.8.1, SVG Export Plug-In . SVG Version: 6.00 Build 0)  -->
<svg version="1.1" id="Camada_1" xmlns="http://www.w3.org/2000/svg" xmlns:xlink="http://www.w3.org/1999/xlink" x="0px" y="0px"
	 viewBox="0 0 92.1 92.1" style="enable-background:new 0 0 92.1 92.1;" xml:space="preserve">
<style type="text/css">
	.st0{fill:#292D32;}
	.st1{opacity:0.34;enable-background:new    ;}
</style>
<g>
	<path class="st0" d="M56.6,92.1c-5.6,0-13.6-4-19.9-22.9l-3.4-10.3l-10.3-3.4C4,49.1,0,41.1,0,35.5c0-5.6,4-13.6,22.9-20h0L63.5,2
		c10.1-3.4,18.6-2.4,23.8,2.8c5.2,5.2,6.2,13.6,2.8,23.8L76.6,69.2C70.3,88.1,62.3,92.1,56.6,92.1z M25.2,22.3
		c-13.3,4.4-18,9.7-18,13.2c0,3.4,4.7,8.7,18,13.1l12,4c1.1,0.4,1.9,1.2,2.3,2.3l4,12c4.4,13.3,9.7,18,13.1,18
		c3.5,0,8.7-4.7,13.1-18l13.5-40.6c2.4-7.4,2-13.4-1.1-16.5c-3.1-3.1-9.1-3.5-16.4-1.1L25.2,22.3z"/>
</g>
<g class="st1">
	<path class="st0" d="M37,57.5c-0.9,0-1.8-0.4-2.5-1c-1.4-1.4-1.4-3.7,0-5.1l17.1-17.2c1.4-1.4,3.7-1.4,5.1,0c1.4,1.4,1.4,3.7,0,5.1
		L39.5,56.5C38.8,57.2,37.9,57.5,37,57.5z"/>
</g>
</svg>
