<?xml version="1.0" encoding="utf-8"?>
<!-- Generator: Adobe Illustrator 27.8.1, SVG Export Plug-In . SVG Version: 6.00 Build 0)  -->
<svg version="1.1" id="Camada_1" xmlns="http://www.w3.org/2000/svg" xmlns:xlink="http://www.w3.org/1999/xlink" x="0px" y="0px"
	 viewBox="0 0 88.6 87.9" style="enable-background:new 0 0 88.6 87.9;" xml:space="preserve">
<style type="text/css">
	.st0{fill:#292D32;}
</style>
<g>
	<path class="st0" d="M67.6,87.9c-2.2,0-5-0.7-8.5-2.8l-12.3-7.3c-1.3-0.7-3.8-0.7-5,0l-12.3,7.3c-7.3,4.3-11.6,2.6-13.5,1.2
		c-1.9-1.4-4.8-5-2.9-13.2l2.9-12.7c0.3-1.4-0.3-3.6-1.3-4.6L4.4,45.7c-5.1-5.1-4.7-9.5-4-11.6c0.7-2.2,2.9-5.9,10-7.1l13.1-2.2
		c1.2-0.2,3-1.5,3.5-2.6l7.3-14.5C37.7,1,42,0.2,44.3,0c2.3,0,6.6,1,9.9,7.6l7.3,14.5c0.6,1.1,2.3,2.5,3.6,2.7L78.2,27
		c7.1,1.2,9.3,5,10,7.2c0.7,2.2,1.1,6.5-4,11.6L74,55.9c-1,1-1.6,3.2-1.3,4.6l2.9,12.6c1.9,8.3-1,11.8-2.9,13.2
		C71.7,87.1,70,87.9,67.6,87.9z M44.3,71.1c2,0,4,0.5,5.6,1.4l12.3,7.3c3.6,2.1,5.9,2.2,6.7,1.6c0.8-0.6,1.5-2.8,0.6-6.9l-2.9-12.7
		c-0.8-3.4,0.5-7.9,3-10.3l10.2-10.2c2-2,2.9-4,2.5-5.4c-0.4-1.4-2.4-2.5-5.2-2.9L64,30.9c-3.2-0.5-6.7-3.1-8.1-6l-7.2-14.5
		c0,0,0,0,0,0c-1.3-2.6-2.9-4.2-4.4-4.2c0,0,0,0,0,0c-1.4,0-3.1,1.6-4.4,4.2l-7.2,14.5c-1.4,2.9-4.9,5.5-8.1,6l-13.2,2.2
		c-2.8,0.5-4.7,1.6-5.1,2.9c-0.4,1.4,0.5,3.4,2.5,5.4L19,51.6c2.5,2.5,3.7,6.9,3,10.3L19,74.6c-0.9,4.1-0.3,6.2,0.6,6.8
		c0.9,0.6,3.1,0.6,6.7-1.5l12.3-7.3C40.3,71.6,42.3,71.1,44.3,71.1z"/>
</g>
</svg>
