<?xml version="1.0" encoding="utf-8"?>
<!-- Generator: Adobe Illustrator 27.8.1, SVG Export Plug-In . SVG Version: 6.00 Build 0)  -->
<svg version="1.1" id="Camada_1" xmlns="http://www.w3.org/2000/svg" xmlns:xlink="http://www.w3.org/1999/xlink" x="0px" y="0px"
	 viewBox="0 0 28.7 27.5" style="enable-background:new 0 0 28.7 27.5;" xml:space="preserve">
<style type="text/css">
	.st0{opacity:0.4;enable-background:new    ;}
	.st1{fill:#292D32;}
</style>
<g class="st0">
	<path class="st1" d="M19,12.8H9.7c-0.6,0-1-0.4-1-1c0-0.6,0.4-1,1-1H19c0.6,0,1,0.4,1,1C20,12.3,19.6,12.8,19,12.8z"/>
</g>
<g>
	<path class="st1" d="M19.7,27.5c-0.5,0-0.9-0.1-1.3-0.4l-5.7-3.8h-5c-4.6,0-7.7-3.1-7.7-7.7v-8C0,3.1,3.1,0,7.7,0H21
		c4.6,0,7.7,3.1,7.7,7.7v8c0,4.2-2.6,7.2-6.7,7.6v1.9c0,0.9-0.5,1.6-1.2,2.1C20.5,27.5,20.1,27.5,19.7,27.5z M7.7,2
		C4.2,2,2,4.2,2,7.7v8c0,3.4,2.2,5.7,5.7,5.7H13c0.2,0,0.4,0.1,0.6,0.2l5.9,4c0.1,0.1,0.3,0.1,0.3,0c0.1,0,0.2-0.1,0.2-0.3v-2.8
		c0-0.6,0.4-1,1-1c3.4,0,5.7-2.2,5.7-5.7v-8C26.7,4.2,24.5,2,21,2H7.7z"/>
</g>
</svg>
