<?xml version="1.0" encoding="utf-8"?>
<!-- Generator: Adobe Illustrator 27.8.1, SVG Export Plug-In . SVG Version: 6.00 Build 0)  -->
<svg version="1.1" id="Camada_1" xmlns="http://www.w3.org/2000/svg" xmlns:xlink="http://www.w3.org/1999/xlink" x="0px" y="0px"
	 viewBox="0 0 87.9 87.9" style="enable-background:new 0 0 87.9 87.9;" xml:space="preserve">
<style type="text/css">
	.st0{fill:#292D32;}
	.st1{opacity:0.4;}
</style>
<g>
	<path class="st0" d="M56.2,87.9H31.7C9.5,87.9,0,78.5,0,56.2V31.7C0,9.5,9.5,0,31.7,0h24.5c22.2,0,31.7,9.5,31.7,31.7v24.5
		C87.9,78.5,78.5,87.9,56.2,87.9z M31.7,6.1c-18.9,0-25.6,6.7-25.6,25.6v24.5c0,18.9,6.7,25.6,25.6,25.6h24.5
		c18.9,0,25.6-6.7,25.6-25.6V31.7c0-18.9-6.7-25.6-25.6-25.6H31.7z"/>
</g>
<g class="st1">
	<g>
		<path class="st0" d="M64.4,34.3c-0.5,0-0.9-0.1-1.4-0.3c-11.9-6-26.2-6-38.2,0c-1.5,0.8-3.4,0.1-4.1-1.4c-0.8-1.5-0.1-3.4,1.4-4.1
			c13.7-6.8,30-6.8,43.6,0c1.5,0.8,2.1,2.6,1.4,4.1C66.6,33.7,65.5,34.3,64.4,34.3z"/>
	</g>
	<g>
		<path class="st0" d="M44,64.6c-1.7,0-3.1-1.4-3.1-3.1V27.3c0-1.7,1.4-3.1,3.1-3.1s3.1,1.4,3.1,3.1v34.2C47,63.2,45.7,64.6,44,64.6
			z"/>
	</g>
</g>
</svg>
