<?xml version="1.0" encoding="utf-8"?>
<!-- Generator: Adobe Illustrator 27.8.1, SVG Export Plug-In . SVG Version: 6.00 Build 0)  -->
<svg version="1.1" id="Camada_1" xmlns="http://www.w3.org/2000/svg" xmlns:xlink="http://www.w3.org/1999/xlink" x="0px" y="0px"
	 viewBox="0 0 28.2 28.2" style="enable-background:new 0 0 28.2 28.2;" xml:space="preserve">
<style type="text/css">
	.st0{fill:#292D32;}
	.st1{opacity:0.4;}
</style>
<g>
	<path class="st0" d="M18.1,28.2h-7.9C3,28.2,0,25.2,0,18.1v-7.9C0,3,3,0,10.2,0h7.9c7.1,0,10.2,3,10.2,10.2v7.9
		C28.2,25.2,25.2,28.2,18.1,28.2z M10.2,2C4.1,2,2,4.1,2,10.2v7.9c0,6.1,2.1,8.2,8.2,8.2h7.9c6.1,0,8.2-2.1,8.2-8.2v-7.9
		c0-6.1-2.1-8.2-8.2-8.2H10.2z"/>
</g>
<g class="st1">
	<g>
		<path class="st0" d="M18.8,23.6c-0.5,0-1-0.4-1-1v-5.1c0-0.5,0.4-1,1-1s1,0.4,1,1v5.1C19.8,23.2,19.4,23.6,18.8,23.6z"/>
	</g>
	<g>
		<path class="st0" d="M18.8,9.1c-0.5,0-1-0.4-1-1V5.6c0-0.5,0.4-1,1-1s1,0.4,1,1v2.6C19.8,8.7,19.4,9.1,18.8,9.1z"/>
	</g>
	<g>
		<path class="st0" d="M18.8,16c-2.4,0-4.4-2-4.4-4.4s2-4.4,4.4-4.4s4.4,2,4.4,4.4S21.2,16,18.8,16z M18.8,9.1
			c-1.3,0-2.4,1.1-2.4,2.4s1.1,2.4,2.4,2.4c1.3,0,2.4-1.1,2.4-2.4S20.1,9.1,18.8,9.1z"/>
	</g>
	<g>
		<path class="st0" d="M9.4,23.6c-0.5,0-1-0.4-1-1v-2.6c0-0.5,0.4-1,1-1s1,0.4,1,1v2.6C10.4,23.2,10,23.6,9.4,23.6z"/>
	</g>
	<g>
		<path class="st0" d="M9.4,11.7c-0.5,0-1-0.4-1-1V5.6c0-0.5,0.4-1,1-1s1,0.4,1,1v5.1C10.4,11.2,10,11.7,9.4,11.7z"/>
	</g>
	<g>
		<path class="st0" d="M9.4,21.1c-2.4,0-4.4-2-4.4-4.4c0-2.4,2-4.4,4.4-4.4s4.4,2,4.4,4.4C13.8,19.1,11.9,21.1,9.4,21.1z M9.4,14.2
			c-1.3,0-2.4,1.1-2.4,2.4c0,1.3,1.1,2.4,2.4,2.4s2.4-1.1,2.4-2.4C11.9,15.3,10.8,14.2,9.4,14.2z"/>
	</g>
</g>
</svg>
