<?xml version="1.0" encoding="utf-8"?>
<!-- Generator: Adobe Illustrator 27.8.1, SVG Export Plug-In . SVG Version: 6.00 Build 0)  -->
<svg version="1.1" id="Camada_1" xmlns="http://www.w3.org/2000/svg" xmlns:xlink="http://www.w3.org/1999/xlink" x="0px" y="0px"
	 viewBox="0 0 60.2 63.3" style="enable-background:new 0 0 60.2 63.3;" xml:space="preserve">
<path d="M41.9,63.3H18.2c-4.9-0.1-9-3.9-9.3-8.8L6.2,11.7c0-0.6,0.2-1.2,0.6-1.7c0.4-0.5,1.1-0.8,1.7-0.8h43.2c1.3,0,2.3,1,2.3,2.3
	c0,0.1,0,0.1,0,0.2l-2.7,42.7C51,59.4,46.9,63.3,41.9,63.3L41.9,63.3z M11.1,13.9l2.4,40.3c0.2,2.5,2.3,4.5,4.8,4.5h23.7
	c2.5,0,4.6-2,4.8-4.5L49.2,14L11.1,13.9z"/>
<path d="M57.9,13.9H2.3c-1.3,0-2.3-1-2.3-2.3s1-2.3,2.3-2.3h55.6c1.3,0,2.3,1,2.3,2.3S59.2,13.9,57.9,13.9z"/>
<path d="M39.4,13.9H20.8c-1.3,0-2.3-1-2.3-2.3V6c0.1-3.3,2.7-5.9,6-6h11.1c3.3,0.1,6,2.8,6,6.2v5.4C41.7,12.8,40.6,13.9,39.4,13.9
	L39.4,13.9z M23.1,9.3H37V6.2c0-0.8-0.6-1.4-1.4-1.4H24.5c-0.8,0-1.4,0.6-1.4,1.4L23.1,9.3z"/>
<path d="M39.4,50.9c-1.3,0-2.3-1-2.3-2.3V23.9c0-1.3,1-2.3,2.3-2.3c1.3,0,2.3,1,2.3,2.3v24.7C41.7,49.9,40.6,50.9,39.4,50.9z"/>
<path d="M20.8,50.9c-1.3,0-2.3-1-2.3-2.3V23.9c0-1.3,1-2.3,2.3-2.3c1.3,0,2.3,1,2.3,2.3v24.7C23.1,49.9,22.1,50.9,20.8,50.9z"/>
<path d="M30.1,50.9c-1.3,0-2.3-1-2.3-2.3V23.9c0-1.3,1-2.3,2.3-2.3c1.3,0,2.3,1,2.3,2.3v24.7C32.4,49.9,31.4,50.9,30.1,50.9z"/>
</svg>
