<?xml version="1.0" encoding="utf-8"?>
<!-- Generator: Adobe Illustrator 27.8.1, SVG Export Plug-In . SVG Version: 6.00 Build 0)  -->
<svg version="1.1" id="Camada_1" xmlns="http://www.w3.org/2000/svg" xmlns:xlink="http://www.w3.org/1999/xlink" x="0px" y="0px"
	 viewBox="0 0 100.8 93.5" style="enable-background:new 0 0 100.8 93.5;" xml:space="preserve">
<g id="Layer_51">
	<path d="M97.1,58.9c-2,0-3.7,1.6-3.7,3.7v12.5c0,6.1-5,11.1-11.1,11.1H18.5c-6.1,0-11.1-5-11.1-11.1V62.5c0-2-1.6-3.7-3.7-3.7
		S0,60.5,0,62.5v12.5c0,10.2,8.3,18.5,18.5,18.5h63.8c10.2,0,18.5-8.3,18.5-18.5V62.5C100.8,60.5,99.1,58.9,97.1,58.9z"/>
	<path d="M32,27.1l14.7-14.7v54.5c0,2,1.6,3.7,3.7,3.7c2,0,3.7-1.6,3.7-3.7V12.5l14.7,14.7c1.4,1.4,3.8,1.4,5.2,0
		c1.4-1.4,1.4-3.8,0-5.2L53,1.1c-0.5-0.5-1.1-0.8-1.8-1c-1.2-0.2-2.4,0.2-3.3,1L26.9,21.9c-1.3,1.6-1.1,3.9,0.5,5.2
		C28.7,28.2,30.7,28.2,32,27.1L32,27.1z"/>
</g>
</svg>
