<?xml version="1.0" encoding="utf-8"?>
<!-- Generator: Adobe Illustrator 27.8.1, SVG Export Plug-In . SVG Version: 6.00 Build 0)  -->
<svg version="1.1" id="Camada_1" xmlns="http://www.w3.org/2000/svg" xmlns:xlink="http://www.w3.org/1999/xlink" x="0px" y="0px"
	 viewBox="0 0 27.6 27.6" style="enable-background:new 0 0 27.6 27.6;" xml:space="preserve">
<style type="text/css">
	.st0{opacity:0.4;enable-background:new    ;}
	.st1{fill:#292D32;}
</style>
<g class="st0">
	<path class="st1" d="M17.7,27.6H10c-1.7,0-3.1-0.2-4.3-0.5c-0.4-0.1-0.7-0.5-0.7-1c0.3-3.8,4.2-6.9,8.9-6.9c4.6,0,8.5,3,8.9,6.9
		c0,0.5-0.2,0.9-0.7,1C20.8,27.5,19.4,27.6,17.7,27.6z M7,25.5c0.8,0.2,1.8,0.2,2.9,0.2h7.7c1.1,0,2.1-0.1,2.9-0.2
		c-0.7-2.5-3.5-4.3-6.8-4.3C10.5,21.2,7.7,23,7,25.5z"/>
</g>
<g>
	<path class="st1" d="M17.7,27.6H10c-1.7,0-3.1-0.2-4.3-0.5C1.8,26,0,23,0,17.7V10C0,3,3,0,10,0h7.7c7,0,10,3,10,10v7.7
		c0,5.3-1.8,8.3-5.7,9.4C20.8,27.5,19.4,27.6,17.7,27.6z M10,1.9c-5.9,0-8,2.1-8,8v7.7c0,4.5,1.3,6.7,4.3,7.6c1,0.3,2.3,0.5,3.8,0.5
		h7.7c1.5,0,2.7-0.1,3.8-0.4c3-0.8,4.3-3.1,4.3-7.6V10c0-5.9-2.1-8-8-8H10z"/>
</g>
<g class="st0">
	<path class="st1" d="M13.8,17.6c-3.1,0-5.6-2.5-5.6-5.6c0-3.1,2.5-5.6,5.6-5.6c3.1,0,5.6,2.5,5.6,5.6
		C19.4,15.1,16.9,17.6,13.8,17.6z M13.8,8.4c-2,0-3.6,1.6-3.6,3.6c0,2,1.6,3.7,3.6,3.7c2,0,3.6-1.6,3.6-3.7
		C17.5,10,15.8,8.4,13.8,8.4z"/>
</g>
</svg>
