<?xml version="1.0" encoding="utf-8"?>
<!-- Generator: Adobe Illustrator 27.8.1, SVG Export Plug-In . SVG Version: 6.00 Build 0)  -->
<svg version="1.1" id="Camada_1" xmlns="http://www.w3.org/2000/svg" xmlns:xlink="http://www.w3.org/1999/xlink" x="0px" y="0px"
	 viewBox="0 0 27.9 29.9" style="enable-background:new 0 0 27.9 29.9;" xml:space="preserve">
<style type="text/css">
	.st0{fill:#292D32;}
	.st1{opacity:0.4;enable-background:new    ;}
</style>
<g>
	<path class="st0" d="M13,16c-4.4,0-8-3.6-8-8s3.6-8,8-8s8,3.6,8,8S17.4,16,13,16z M13,2.1C9.7,2.1,7.1,4.7,7.1,8s2.6,5.9,5.9,5.9
		s5.9-2.6,5.9-5.9S16.2,2.1,13,2.1z"/>
</g>
<g class="st1">
	<path class="st0" d="M1,29.9c-0.6,0-1-0.5-1-1c0-5.9,5.8-10.8,13-10.8c1.4,0,2.8,0.2,4.1,0.5c0.6,0.2,0.9,0.7,0.7,1.3
		c-0.2,0.6-0.7,0.9-1.3,0.7c-1.1-0.3-2.3-0.5-3.6-0.5c-6,0-10.9,3.9-10.9,8.7C2.1,29.4,1.6,29.9,1,29.9z"/>
</g>
<g>
	<path class="st0" d="M21.3,29.9c-1.6,0-3.2-0.6-4.4-1.7c-0.5-0.4-0.9-0.9-1.3-1.5c-0.6-1-0.9-2.2-0.9-3.4c0-1.7,0.7-3.4,1.9-4.6
		c1.3-1.3,2.9-2,4.7-2c1.9,0,3.7,0.8,4.9,2.2c1.1,1.2,1.7,2.8,1.7,4.4c0,0.5-0.1,1.1-0.2,1.6c-0.1,0.6-0.4,1.3-0.8,1.8
		C25.8,28.6,23.6,29.9,21.3,29.9z M21.3,18.8c-1.2,0-2.4,0.5-3.2,1.4c-0.8,0.8-1.3,2-1.3,3.1c0,0.8,0.2,1.6,0.7,2.3
		c0.2,0.4,0.5,0.7,0.9,1c0.8,0.8,1.9,1.2,3,1.2c1.6,0,3.1-0.8,3.9-2.2c0.2-0.4,0.4-0.8,0.5-1.3c0.1-0.4,0.1-0.7,0.1-1.1
		c0-1.1-0.4-2.2-1.2-3C23.8,19.3,22.6,18.8,21.3,18.8z"/>
</g>
<g>
	<path class="st0" d="M23.4,24.3h-4.1c-0.6,0-1-0.5-1-1c0-0.6,0.5-1,1-1h4.1c0.6,0,1,0.5,1,1C24.4,23.8,24,24.3,23.4,24.3z"/>
</g>
<g>
	<path class="st0" d="M21.3,26.4c-0.6,0-1-0.5-1-1v-4.2c0-0.6,0.5-1,1-1c0.6,0,1,0.5,1,1v4.2C22.4,25.9,21.9,26.4,21.3,26.4z"/>
</g>
</svg>
